<svg class="icon" viewBox="0 0 1025 1024" xmlns="http://www.w3.org/2000/svg" width="240.234" height="240"><path d="M127.11 701.648q0 26.44 18.813 45.252t46.268 18.812h253.203v128.127H127.11q-26.439 0-49.827-9.66T36.608 857.23 9.66 816.556 0 765.712V128.127Q0 101.688 9.66 78.3t26.948-40.675 40.675-27.456T127.11 0h766.73q26.438 0 49.826 10.169t40.676 27.456 27.455 40.675 10.17 49.827v187.106l-128.128 1.017q-2.034-25.422-19.83-43.217t-44.233-17.796H192.19q-27.456 0-46.268 18.813T127.11 319.3v382.348zm889.772-200.325q6.101 9.152 7.626 23.388t-10.677 28.473q-11.186 14.236-18.304 21.354l-8.135 8.135-105.755-95.587q5.084-6.1 14.236-14.744t14.236-13.728q14.237-14.237 30.507-12.711t27.455 6.61q12.203 5.084 26.44 18.812t22.37 29.998zM613.18 789.1q3.05-3.05 14.236-16.27t27.964-32.54 37.117-42.2 40.675-46.269q48.81-54.911 108.806-122.026l107.79 95.587q-59.996 68.131-108.807 123.043-20.337 23.388-40.675 46.268t-37.116 41.184-27.456 29.998-12.711 13.728q-9.152 12.202-25.422 20.337-7.118 5.085-21.355 11.186t-29.998 12.203-29.49 10.677-20.845 5.593q-26.44 5.084-23.389-22.372 1.017-7.118 4.068-21.863t6.61-30.506 7.118-28.981 5.593-18.304q5.084-13.22 17.287-28.473z"/></svg>